<?xml version="1.0" encoding="utf-8" standalone="no"?>
<!DOCTYPE svg PUBLIC "-//W3C//DTD SVG 1.1//EN"
  "http://www.w3.org/Graphics/SVG/1.1/DTD/svg11.dtd">
<svg xmlns:xlink="http://www.w3.org/1999/xlink" width="739.151462pt" height="513.344375pt" viewBox="0 0 739.151462 513.344375" xmlns="http://www.w3.org/2000/svg" version="1.1">
 <metadata>
  <rdf:RDF xmlns:dc="http://purl.org/dc/elements/1.1/" xmlns:cc="http://creativecommons.org/ns#" xmlns:rdf="http://www.w3.org/1999/02/22-rdf-syntax-ns#">
   <cc:Work>
    <dc:type rdf:resource="http://purl.org/dc/dcmitype/StillImage"/>
    <dc:date>2026-01-17T11:42:36.296215</dc:date>
    <dc:format>image/svg+xml</dc:format>
    <dc:creator>
     <cc:Agent>
      <dc:title>Matplotlib v3.10.8, https://matplotlib.org/</dc:title>
     </cc:Agent>
    </dc:creator>
   </cc:Work>
  </rdf:RDF>
 </metadata>
 <defs>
  <style type="text/css">*{stroke-linejoin: round; stroke-linecap: butt}</style>
 </defs>
 <g id="figure_1">
  <g id="patch_1">
   <path d="M 0 513.344375 
L 739.151462 513.344375 
L 739.151462 0 
L 0 0 
z
" style="fill: #ffffff"/>
  </g>
  <g id="axes_1">
   <g id="patch_2">
    <path d="M 54.015 471.916875 
L 723.615 471.916875 
L 723.615 28.396875 
L 54.015 28.396875 
z
" style="fill: #ffffff"/>
   </g>
   <g id="patch_3">
    <path d="M 84.451364 471.916875 
L 89.534681 471.916875 
L 89.534681 49.516875 
L 84.451364 49.516875 
z
" clip-path="url(#pb91fe0ca44)" style="fill: #0000ff"/>
   </g>
   <g id="patch_4">
    <path d="M 90.805511 471.916875 
L 95.888828 471.916875 
L 95.888828 49.516875 
L 90.805511 49.516875 
z
" clip-path="url(#pb91fe0ca44)" style="fill: #0000ff"/>
   </g>
   <g id="patch_5">
    <path d="M 97.159657 471.916875 
L 102.242975 471.916875 
L 102.242975 49.516875 
L 97.159657 49.516875 
z
" clip-path="url(#pb91fe0ca44)" style="fill: #0000ff"/>
   </g>
   <g id="patch_6">
    <path d="M 103.513804 471.916875 
L 108.597122 471.916875 
L 108.597122 49.516875 
L 103.513804 49.516875 
z
" clip-path="url(#pb91fe0ca44)" style="fill: #0000ff"/>
   </g>
   <g id="patch_7">
    <path d="M 109.867951 471.916875 
L 114.951269 471.916875 
L 114.951269 49.516875 
L 109.867951 49.516875 
z
" clip-path="url(#pb91fe0ca44)" style="fill: #0000ff"/>
   </g>
   <g id="patch_8">
    <path d="M 116.222098 471.916875 
L 121.305416 471.916875 
L 121.305416 49.516875 
L 116.222098 49.516875 
z
" clip-path="url(#pb91fe0ca44)" style="fill: #0000ff"/>
   </g>
   <g id="patch_9">
    <path d="M 122.576245 471.916875 
L 127.659563 471.916875 
L 127.659563 49.516875 
L 122.576245 49.516875 
z
" clip-path="url(#pb91fe0ca44)" style="fill: #0000ff"/>
   </g>
   <g id="patch_10">
    <path d="M 128.930392 471.916875 
L 134.013709 471.916875 
L 134.013709 49.516875 
L 128.930392 49.516875 
z
" clip-path="url(#pb91fe0ca44)" style="fill: #0000ff"/>
   </g>
   <g id="patch_11">
    <path d="M 135.284539 471.916875 
L 140.367856 471.916875 
L 140.367856 49.516875 
L 135.284539 49.516875 
z
" clip-path="url(#pb91fe0ca44)" style="fill: #0000ff"/>
   </g>
   <g id="patch_12">
    <path d="M 141.638686 471.916875 
L 146.722003 471.916875 
L 146.722003 49.516875 
L 141.638686 49.516875 
z
" clip-path="url(#pb91fe0ca44)" style="fill: #0000ff"/>
   </g>
   <g id="patch_13">
    <path d="M 147.992833 471.916875 
L 153.07615 471.916875 
L 153.07615 49.516875 
L 147.992833 49.516875 
z
" clip-path="url(#pb91fe0ca44)" style="fill: #0000ff"/>
   </g>
   <g id="patch_14">
    <path d="M 154.34698 471.916875 
L 159.430297 471.916875 
L 159.430297 49.516875 
L 154.34698 49.516875 
z
" clip-path="url(#pb91fe0ca44)" style="fill: #0000ff"/>
   </g>
   <g id="patch_15">
    <path d="M 160.701126 471.916875 
L 165.784444 471.916875 
L 165.784444 49.516875 
L 160.701126 49.516875 
z
" clip-path="url(#pb91fe0ca44)" style="fill: #0000ff"/>
   </g>
   <g id="patch_16">
    <path d="M 167.055273 471.916875 
L 172.138591 471.916875 
L 172.138591 49.516875 
L 167.055273 49.516875 
z
" clip-path="url(#pb91fe0ca44)" style="fill: #0000ff"/>
   </g>
   <g id="patch_17">
    <path d="M 173.40942 471.916875 
L 178.492738 471.916875 
L 178.492738 49.516875 
L 173.40942 49.516875 
z
" clip-path="url(#pb91fe0ca44)" style="fill: #0000ff"/>
   </g>
   <g id="patch_18">
    <path d="M 179.763567 471.916875 
L 184.846885 471.916875 
L 184.846885 49.516875 
L 179.763567 49.516875 
z
" clip-path="url(#pb91fe0ca44)" style="fill: #0000ff"/>
   </g>
   <g id="patch_19">
    <path d="M 186.117714 471.916875 
L 191.201032 471.916875 
L 191.201032 49.516875 
L 186.117714 49.516875 
z
" clip-path="url(#pb91fe0ca44)" style="fill: #0000ff"/>
   </g>
   <g id="patch_20">
    <path d="M 192.471861 471.916875 
L 197.555178 471.916875 
L 197.555178 49.516875 
L 192.471861 49.516875 
z
" clip-path="url(#pb91fe0ca44)" style="fill: #0000ff"/>
   </g>
   <g id="patch_21">
    <path d="M 198.826008 471.916875 
L 203.909325 471.916875 
L 203.909325 49.516875 
L 198.826008 49.516875 
z
" clip-path="url(#pb91fe0ca44)" style="fill: #0000ff"/>
   </g>
   <g id="patch_22">
    <path d="M 205.180155 471.916875 
L 210.263472 471.916875 
L 210.263472 49.516875 
L 205.180155 49.516875 
z
" clip-path="url(#pb91fe0ca44)" style="fill: #0000ff"/>
   </g>
   <g id="patch_23">
    <path d="M 211.534302 471.916875 
L 216.617619 471.916875 
L 216.617619 49.516875 
L 211.534302 49.516875 
z
" clip-path="url(#pb91fe0ca44)" style="fill: #0000ff"/>
   </g>
   <g id="patch_24">
    <path d="M 217.888448 471.916875 
L 222.971766 471.916875 
L 222.971766 49.516875 
L 217.888448 49.516875 
z
" clip-path="url(#pb91fe0ca44)" style="fill: #0000ff"/>
   </g>
   <g id="patch_25">
    <path d="M 224.242595 471.916875 
L 229.325913 471.916875 
L 229.325913 49.516875 
L 224.242595 49.516875 
z
" clip-path="url(#pb91fe0ca44)" style="fill: #0000ff"/>
   </g>
   <g id="patch_26">
    <path d="M 230.596742 471.916875 
L 235.68006 471.916875 
L 235.68006 49.516875 
L 230.596742 49.516875 
z
" clip-path="url(#pb91fe0ca44)" style="fill: #0000ff"/>
   </g>
   <g id="patch_27">
    <path d="M 236.950889 471.916875 
L 242.034207 471.916875 
L 242.034207 49.516875 
L 236.950889 49.516875 
z
" clip-path="url(#pb91fe0ca44)" style="fill: #0000ff"/>
   </g>
   <g id="patch_28">
    <path d="M 243.305036 471.916875 
L 248.388354 471.916875 
L 248.388354 49.516875 
L 243.305036 49.516875 
z
" clip-path="url(#pb91fe0ca44)" style="fill: #0000ff"/>
   </g>
   <g id="patch_29">
    <path d="M 249.659183 471.916875 
L 254.7425 471.916875 
L 254.7425 49.516875 
L 249.659183 49.516875 
z
" clip-path="url(#pb91fe0ca44)" style="fill: #0000ff"/>
   </g>
   <g id="patch_30">
    <path d="M 256.01333 471.916875 
L 261.096647 471.916875 
L 261.096647 49.516875 
L 256.01333 49.516875 
z
" clip-path="url(#pb91fe0ca44)" style="fill: #0000ff"/>
   </g>
   <g id="patch_31">
    <path d="M 262.367477 471.916875 
L 267.450794 471.916875 
L 267.450794 49.516875 
L 262.367477 49.516875 
z
" clip-path="url(#pb91fe0ca44)" style="fill: #0000ff"/>
   </g>
   <g id="patch_32">
    <path d="M 268.721624 471.916875 
L 273.804941 471.916875 
L 273.804941 49.516875 
L 268.721624 49.516875 
z
" clip-path="url(#pb91fe0ca44)" style="fill: #0000ff"/>
   </g>
   <g id="patch_33">
    <path d="M 275.075771 471.916875 
L 280.159088 471.916875 
L 280.159088 49.516875 
L 275.075771 49.516875 
z
" clip-path="url(#pb91fe0ca44)" style="fill: #0000ff"/>
   </g>
   <g id="patch_34">
    <path d="M 281.429917 471.916875 
L 286.513235 471.916875 
L 286.513235 49.516875 
L 281.429917 49.516875 
z
" clip-path="url(#pb91fe0ca44)" style="fill: #0000ff"/>
   </g>
   <g id="patch_35">
    <path d="M 287.784064 471.916875 
L 292.867382 471.916875 
L 292.867382 49.516875 
L 287.784064 49.516875 
z
" clip-path="url(#pb91fe0ca44)" style="fill: #0000ff"/>
   </g>
   <g id="patch_36">
    <path d="M 294.138211 471.916875 
L 299.221529 471.916875 
L 299.221529 49.516875 
L 294.138211 49.516875 
z
" clip-path="url(#pb91fe0ca44)" style="fill: #0000ff"/>
   </g>
   <g id="patch_37">
    <path d="M 300.492358 471.916875 
L 305.575676 471.916875 
L 305.575676 49.516875 
L 300.492358 49.516875 
z
" clip-path="url(#pb91fe0ca44)" style="fill: #0000ff"/>
   </g>
   <g id="patch_38">
    <path d="M 306.846505 471.916875 
L 311.929823 471.916875 
L 311.929823 49.516875 
L 306.846505 49.516875 
z
" clip-path="url(#pb91fe0ca44)" style="fill: #0000ff"/>
   </g>
   <g id="patch_39">
    <path d="M 313.200652 471.916875 
L 318.283969 471.916875 
L 318.283969 49.516875 
L 313.200652 49.516875 
z
" clip-path="url(#pb91fe0ca44)" style="fill: #0000ff"/>
   </g>
   <g id="patch_40">
    <path d="M 319.554799 471.916875 
L 324.638116 471.916875 
L 324.638116 49.516875 
L 319.554799 49.516875 
z
" clip-path="url(#pb91fe0ca44)" style="fill: #0000ff"/>
   </g>
   <g id="patch_41">
    <path d="M 325.908946 471.916875 
L 330.992263 471.916875 
L 330.992263 49.516875 
L 325.908946 49.516875 
z
" clip-path="url(#pb91fe0ca44)" style="fill: #0000ff"/>
   </g>
   <g id="patch_42">
    <path d="M 332.263093 471.916875 
L 337.34641 471.916875 
L 337.34641 49.516875 
L 332.263093 49.516875 
z
" clip-path="url(#pb91fe0ca44)" style="fill: #0000ff"/>
   </g>
   <g id="patch_43">
    <path d="M 338.61724 471.916875 
L 343.700557 471.916875 
L 343.700557 49.516875 
L 338.61724 49.516875 
z
" clip-path="url(#pb91fe0ca44)" style="fill: #0000ff"/>
   </g>
   <g id="patch_44">
    <path d="M 344.971386 471.916875 
L 350.054704 471.916875 
L 350.054704 49.516875 
L 344.971386 49.516875 
z
" clip-path="url(#pb91fe0ca44)" style="fill: #0000ff"/>
   </g>
   <g id="patch_45">
    <path d="M 351.325533 471.916875 
L 356.408851 471.916875 
L 356.408851 49.516875 
L 351.325533 49.516875 
z
" clip-path="url(#pb91fe0ca44)" style="fill: #0000ff"/>
   </g>
   <g id="patch_46">
    <path d="M 357.67968 471.916875 
L 362.762998 471.916875 
L 362.762998 49.516875 
L 357.67968 49.516875 
z
" clip-path="url(#pb91fe0ca44)" style="fill: #0000ff"/>
   </g>
   <g id="patch_47">
    <path d="M 364.033827 471.916875 
L 369.117145 471.916875 
L 369.117145 49.516875 
L 364.033827 49.516875 
z
" clip-path="url(#pb91fe0ca44)" style="fill: #0000ff"/>
   </g>
   <g id="patch_48">
    <path d="M 370.387974 471.916875 
L 375.471292 471.916875 
L 375.471292 49.516875 
L 370.387974 49.516875 
z
" clip-path="url(#pb91fe0ca44)" style="fill: #0000ff"/>
   </g>
   <g id="patch_49">
    <path d="M 376.742121 471.916875 
L 381.825438 471.916875 
L 381.825438 49.516875 
L 376.742121 49.516875 
z
" clip-path="url(#pb91fe0ca44)" style="fill: #0000ff"/>
   </g>
   <g id="patch_50">
    <path d="M 383.096268 471.916875 
L 388.179585 471.916875 
L 388.179585 49.516875 
L 383.096268 49.516875 
z
" clip-path="url(#pb91fe0ca44)" style="fill: #0000ff"/>
   </g>
   <g id="patch_51">
    <path d="M 389.450415 471.916875 
L 394.533732 471.916875 
L 394.533732 49.516875 
L 389.450415 49.516875 
z
" clip-path="url(#pb91fe0ca44)" style="fill: #0000ff"/>
   </g>
   <g id="patch_52">
    <path d="M 395.804562 471.916875 
L 400.887879 471.916875 
L 400.887879 49.516875 
L 395.804562 49.516875 
z
" clip-path="url(#pb91fe0ca44)" style="fill: #0000ff"/>
   </g>
   <g id="patch_53">
    <path d="M 402.158708 471.916875 
L 407.242026 471.916875 
L 407.242026 49.516875 
L 402.158708 49.516875 
z
" clip-path="url(#pb91fe0ca44)" style="fill: #0000ff"/>
   </g>
   <g id="patch_54">
    <path d="M 408.512855 471.916875 
L 413.596173 471.916875 
L 413.596173 49.516875 
L 408.512855 49.516875 
z
" clip-path="url(#pb91fe0ca44)" style="fill: #0000ff"/>
   </g>
   <g id="patch_55">
    <path d="M 414.867002 471.916875 
L 419.95032 471.916875 
L 419.95032 49.516875 
L 414.867002 49.516875 
z
" clip-path="url(#pb91fe0ca44)" style="fill: #0000ff"/>
   </g>
   <g id="patch_56">
    <path d="M 421.221149 471.916875 
L 426.304467 471.916875 
L 426.304467 49.516875 
L 421.221149 49.516875 
z
" clip-path="url(#pb91fe0ca44)" style="fill: #0000ff"/>
   </g>
   <g id="patch_57">
    <path d="M 427.575296 471.916875 
L 432.658614 471.916875 
L 432.658614 49.516875 
L 427.575296 49.516875 
z
" clip-path="url(#pb91fe0ca44)" style="fill: #0000ff"/>
   </g>
   <g id="patch_58">
    <path d="M 433.929443 471.916875 
L 439.01276 471.916875 
L 439.01276 49.516875 
L 433.929443 49.516875 
z
" clip-path="url(#pb91fe0ca44)" style="fill: #0000ff"/>
   </g>
   <g id="patch_59">
    <path d="M 440.28359 471.916875 
L 445.366907 471.916875 
L 445.366907 49.516875 
L 440.28359 49.516875 
z
" clip-path="url(#pb91fe0ca44)" style="fill: #0000ff"/>
   </g>
   <g id="patch_60">
    <path d="M 446.637737 471.916875 
L 451.721054 471.916875 
L 451.721054 49.516875 
L 446.637737 49.516875 
z
" clip-path="url(#pb91fe0ca44)" style="fill: #0000ff"/>
   </g>
   <g id="patch_61">
    <path d="M 452.991884 471.916875 
L 458.075201 471.916875 
L 458.075201 49.516875 
L 452.991884 49.516875 
z
" clip-path="url(#pb91fe0ca44)" style="fill: #0000ff"/>
   </g>
   <g id="patch_62">
    <path d="M 459.346031 471.916875 
L 464.429348 471.916875 
L 464.429348 49.516875 
L 459.346031 49.516875 
z
" clip-path="url(#pb91fe0ca44)" style="fill: #0000ff"/>
   </g>
   <g id="patch_63">
    <path d="M 465.700177 471.916875 
L 470.783495 471.916875 
L 470.783495 49.516875 
L 465.700177 49.516875 
z
" clip-path="url(#pb91fe0ca44)" style="fill: #0000ff"/>
   </g>
   <g id="patch_64">
    <path d="M 472.054324 471.916875 
L 477.137642 471.916875 
L 477.137642 49.516875 
L 472.054324 49.516875 
z
" clip-path="url(#pb91fe0ca44)" style="fill: #0000ff"/>
   </g>
   <g id="patch_65">
    <path d="M 478.408471 471.916875 
L 483.491789 471.916875 
L 483.491789 49.516875 
L 478.408471 49.516875 
z
" clip-path="url(#pb91fe0ca44)" style="fill: #0000ff"/>
   </g>
   <g id="patch_66">
    <path d="M 484.762618 471.916875 
L 489.845936 471.916875 
L 489.845936 49.516875 
L 484.762618 49.516875 
z
" clip-path="url(#pb91fe0ca44)" style="fill: #0000ff"/>
   </g>
   <g id="patch_67">
    <path d="M 491.116765 471.916875 
L 496.200083 471.916875 
L 496.200083 49.516875 
L 491.116765 49.516875 
z
" clip-path="url(#pb91fe0ca44)" style="fill: #0000ff"/>
   </g>
   <g id="patch_68">
    <path d="M 497.470912 471.916875 
L 502.554229 471.916875 
L 502.554229 49.516875 
L 497.470912 49.516875 
z
" clip-path="url(#pb91fe0ca44)" style="fill: #0000ff"/>
   </g>
   <g id="patch_69">
    <path d="M 503.825059 471.916875 
L 508.908376 471.916875 
L 508.908376 49.516875 
L 503.825059 49.516875 
z
" clip-path="url(#pb91fe0ca44)" style="fill: #0000ff"/>
   </g>
   <g id="patch_70">
    <path d="M 510.179206 471.916875 
L 515.262523 471.916875 
L 515.262523 49.516875 
L 510.179206 49.516875 
z
" clip-path="url(#pb91fe0ca44)" style="fill: #0000ff"/>
   </g>
   <g id="patch_71">
    <path d="M 516.533353 471.916875 
L 521.61667 471.916875 
L 521.61667 49.516875 
L 516.533353 49.516875 
z
" clip-path="url(#pb91fe0ca44)" style="fill: #0000ff"/>
   </g>
   <g id="patch_72">
    <path d="M 522.8875 471.916875 
L 527.970817 471.916875 
L 527.970817 49.516875 
L 522.8875 49.516875 
z
" clip-path="url(#pb91fe0ca44)" style="fill: #0000ff"/>
   </g>
   <g id="patch_73">
    <path d="M 529.241646 471.916875 
L 534.324964 471.916875 
L 534.324964 49.516875 
L 529.241646 49.516875 
z
" clip-path="url(#pb91fe0ca44)" style="fill: #0000ff"/>
   </g>
   <g id="patch_74">
    <path d="M 535.595793 471.916875 
L 540.679111 471.916875 
L 540.679111 49.516875 
L 535.595793 49.516875 
z
" clip-path="url(#pb91fe0ca44)" style="fill: #0000ff"/>
   </g>
   <g id="patch_75">
    <path d="M 541.94994 471.916875 
L 547.033258 471.916875 
L 547.033258 49.516875 
L 541.94994 49.516875 
z
" clip-path="url(#pb91fe0ca44)" style="fill: #0000ff"/>
   </g>
   <g id="patch_76">
    <path d="M 548.304087 471.916875 
L 553.387405 471.916875 
L 553.387405 49.516875 
L 548.304087 49.516875 
z
" clip-path="url(#pb91fe0ca44)" style="fill: #0000ff"/>
   </g>
   <g id="patch_77">
    <path d="M 554.658234 471.916875 
L 559.741552 471.916875 
L 559.741552 49.516875 
L 554.658234 49.516875 
z
" clip-path="url(#pb91fe0ca44)" style="fill: #0000ff"/>
   </g>
   <g id="patch_78">
    <path d="M 561.012381 471.916875 
L 566.095698 471.916875 
L 566.095698 49.516875 
L 561.012381 49.516875 
z
" clip-path="url(#pb91fe0ca44)" style="fill: #0000ff"/>
   </g>
   <g id="patch_79">
    <path d="M 567.366528 471.916875 
L 572.449845 471.916875 
L 572.449845 49.516875 
L 567.366528 49.516875 
z
" clip-path="url(#pb91fe0ca44)" style="fill: #0000ff"/>
   </g>
   <g id="patch_80">
    <path d="M 573.720675 471.916875 
L 578.803992 471.916875 
L 578.803992 49.516875 
L 573.720675 49.516875 
z
" clip-path="url(#pb91fe0ca44)" style="fill: #0000ff"/>
   </g>
   <g id="patch_81">
    <path d="M 580.074822 471.916875 
L 585.158139 471.916875 
L 585.158139 49.516875 
L 580.074822 49.516875 
z
" clip-path="url(#pb91fe0ca44)" style="fill: #0000ff"/>
   </g>
   <g id="patch_82">
    <path d="M 586.428968 471.916875 
L 591.512286 471.916875 
L 591.512286 49.516875 
L 586.428968 49.516875 
z
" clip-path="url(#pb91fe0ca44)" style="fill: #0000ff"/>
   </g>
   <g id="patch_83">
    <path d="M 592.783115 471.916875 
L 597.866433 471.916875 
L 597.866433 49.516875 
L 592.783115 49.516875 
z
" clip-path="url(#pb91fe0ca44)" style="fill: #0000ff"/>
   </g>
   <g id="patch_84">
    <path d="M 599.137262 471.916875 
L 604.22058 471.916875 
L 604.22058 49.516875 
L 599.137262 49.516875 
z
" clip-path="url(#pb91fe0ca44)" style="fill: #0000ff"/>
   </g>
   <g id="patch_85">
    <path d="M 605.491409 471.916875 
L 610.574727 471.916875 
L 610.574727 49.516875 
L 605.491409 49.516875 
z
" clip-path="url(#pb91fe0ca44)" style="fill: #0000ff"/>
   </g>
   <g id="patch_86">
    <path d="M 611.845556 471.916875 
L 616.928874 471.916875 
L 616.928874 49.516875 
L 611.845556 49.516875 
z
" clip-path="url(#pb91fe0ca44)" style="fill: #0000ff"/>
   </g>
   <g id="patch_87">
    <path d="M 618.199703 471.916875 
L 623.28302 471.916875 
L 623.28302 49.516875 
L 618.199703 49.516875 
z
" clip-path="url(#pb91fe0ca44)" style="fill: #0000ff"/>
   </g>
   <g id="patch_88">
    <path d="M 624.55385 471.916875 
L 629.637167 471.916875 
L 629.637167 49.516875 
L 624.55385 49.516875 
z
" clip-path="url(#pb91fe0ca44)" style="fill: #0000ff"/>
   </g>
   <g id="patch_89">
    <path d="M 630.907997 471.916875 
L 635.991314 471.916875 
L 635.991314 49.516875 
L 630.907997 49.516875 
z
" clip-path="url(#pb91fe0ca44)" style="fill: #0000ff"/>
   </g>
   <g id="patch_90">
    <path d="M 637.262144 471.916875 
L 642.345461 471.916875 
L 642.345461 49.516875 
L 637.262144 49.516875 
z
" clip-path="url(#pb91fe0ca44)" style="fill: #0000ff"/>
   </g>
   <g id="patch_91">
    <path d="M 643.616291 471.916875 
L 648.699608 471.916875 
L 648.699608 49.516875 
L 643.616291 49.516875 
z
" clip-path="url(#pb91fe0ca44)" style="fill: #0000ff"/>
   </g>
   <g id="patch_92">
    <path d="M 649.970437 471.916875 
L 655.053755 471.916875 
L 655.053755 49.516875 
L 649.970437 49.516875 
z
" clip-path="url(#pb91fe0ca44)" style="fill: #0000ff"/>
   </g>
   <g id="patch_93">
    <path d="M 656.324584 471.916875 
L 661.407902 471.916875 
L 661.407902 49.516875 
L 656.324584 49.516875 
z
" clip-path="url(#pb91fe0ca44)" style="fill: #0000ff"/>
   </g>
   <g id="patch_94">
    <path d="M 662.678731 471.916875 
L 667.762049 471.916875 
L 667.762049 49.516875 
L 662.678731 49.516875 
z
" clip-path="url(#pb91fe0ca44)" style="fill: #0000ff"/>
   </g>
   <g id="patch_95">
    <path d="M 669.032878 471.916875 
L 674.116196 471.916875 
L 674.116196 49.516875 
L 669.032878 49.516875 
z
" clip-path="url(#pb91fe0ca44)" style="fill: #0000ff"/>
   </g>
   <g id="patch_96">
    <path d="M 675.387025 471.916875 
L 680.470343 471.916875 
L 680.470343 49.516875 
L 675.387025 49.516875 
z
" clip-path="url(#pb91fe0ca44)" style="fill: #0000ff"/>
   </g>
   <g id="patch_97">
    <path d="M 681.741172 471.916875 
L 686.824489 471.916875 
L 686.824489 49.516875 
L 681.741172 49.516875 
z
" clip-path="url(#pb91fe0ca44)" style="fill: #0000ff"/>
   </g>
   <g id="patch_98">
    <path d="M 688.095319 471.916875 
L 693.178636 471.916875 
L 693.178636 49.516875 
L 688.095319 49.516875 
z
" clip-path="url(#pb91fe0ca44)" style="fill: #0000ff"/>
   </g>
   <g id="matplotlib.axis_1">
    <g id="xtick_1">
     <g id="line2d_1">
      <defs>
       <path id="mf45efc757a" d="M 0 0 
L 0 3.5 
" style="stroke: #000000; stroke-width: 0.8"/>
      </defs>
      <g>
       <use xlink:href="#mf45efc757a" x="86.993022" y="471.916875" style="stroke: #000000; stroke-width: 0.8"/>
      </g>
     </g>
     <g id="text_1">
      <!-- 0 -->
      <g transform="translate(83.811772 486.515312) scale(0.1 -0.1)">
       <defs>
        <path id="DejaVuSans-30" d="M 2034 4250 
Q 1547 4250 1301 3770 
Q 1056 3291 1056 2328 
Q 1056 1369 1301 889 
Q 1547 409 2034 409 
Q 2525 409 2770 889 
Q 3016 1369 3016 2328 
Q 3016 3291 2770 3770 
Q 2525 4250 2034 4250 
z
M 2034 4750 
Q 2819 4750 3233 4129 
Q 3647 3509 3647 2328 
Q 3647 1150 3233 529 
Q 2819 -91 2034 -91 
Q 1250 -91 836 529 
Q 422 1150 422 2328 
Q 422 3509 836 4129 
Q 1250 4750 2034 4750 
z
" transform="scale(0.015625)"/>
       </defs>
       <use xlink:href="#DejaVuSans-30"/>
      </g>
     </g>
    </g>
    <g id="xtick_2">
     <g id="line2d_2">
      <g>
       <use xlink:href="#mf45efc757a" x="214.07596" y="471.916875" style="stroke: #000000; stroke-width: 0.8"/>
      </g>
     </g>
     <g id="text_2">
      <!-- 20 -->
      <g transform="translate(207.71346 486.515312) scale(0.1 -0.1)">
       <defs>
        <path id="DejaVuSans-32" d="M 1228 531 
L 3431 531 
L 3431 0 
L 469 0 
L 469 531 
Q 828 903 1448 1529 
Q 2069 2156 2228 2338 
Q 2531 2678 2651 2914 
Q 2772 3150 2772 3378 
Q 2772 3750 2511 3984 
Q 2250 4219 1831 4219 
Q 1534 4219 1204 4116 
Q 875 4013 500 3803 
L 500 4441 
Q 881 4594 1212 4672 
Q 1544 4750 1819 4750 
Q 2544 4750 2975 4387 
Q 3406 4025 3406 3419 
Q 3406 3131 3298 2873 
Q 3191 2616 2906 2266 
Q 2828 2175 2409 1742 
Q 1991 1309 1228 531 
z
" transform="scale(0.015625)"/>
       </defs>
       <use xlink:href="#DejaVuSans-32"/>
       <use xlink:href="#DejaVuSans-30" transform="translate(63.623047 0)"/>
      </g>
     </g>
    </g>
    <g id="xtick_3">
     <g id="line2d_3">
      <g>
       <use xlink:href="#mf45efc757a" x="341.158898" y="471.916875" style="stroke: #000000; stroke-width: 0.8"/>
      </g>
     </g>
     <g id="text_3">
      <!-- 40 -->
      <g transform="translate(334.796398 486.515312) scale(0.1 -0.1)">
       <defs>
        <path id="DejaVuSans-34" d="M 2419 4116 
L 825 1625 
L 2419 1625 
L 2419 4116 
z
M 2253 4666 
L 3047 4666 
L 3047 1625 
L 3713 1625 
L 3713 1100 
L 3047 1100 
L 3047 0 
L 2419 0 
L 2419 1100 
L 313 1100 
L 313 1709 
L 2253 4666 
z
" transform="scale(0.015625)"/>
       </defs>
       <use xlink:href="#DejaVuSans-34"/>
       <use xlink:href="#DejaVuSans-30" transform="translate(63.623047 0)"/>
      </g>
     </g>
    </g>
    <g id="xtick_4">
     <g id="line2d_4">
      <g>
       <use xlink:href="#mf45efc757a" x="468.241836" y="471.916875" style="stroke: #000000; stroke-width: 0.8"/>
      </g>
     </g>
     <g id="text_4">
      <!-- 60 -->
      <g transform="translate(461.879336 486.515312) scale(0.1 -0.1)">
       <defs>
        <path id="DejaVuSans-36" d="M 2113 2584 
Q 1688 2584 1439 2293 
Q 1191 2003 1191 1497 
Q 1191 994 1439 701 
Q 1688 409 2113 409 
Q 2538 409 2786 701 
Q 3034 994 3034 1497 
Q 3034 2003 2786 2293 
Q 2538 2584 2113 2584 
z
M 3366 4563 
L 3366 3988 
Q 3128 4100 2886 4159 
Q 2644 4219 2406 4219 
Q 1781 4219 1451 3797 
Q 1122 3375 1075 2522 
Q 1259 2794 1537 2939 
Q 1816 3084 2150 3084 
Q 2853 3084 3261 2657 
Q 3669 2231 3669 1497 
Q 3669 778 3244 343 
Q 2819 -91 2113 -91 
Q 1303 -91 875 529 
Q 447 1150 447 2328 
Q 447 3434 972 4092 
Q 1497 4750 2381 4750 
Q 2619 4750 2861 4703 
Q 3103 4656 3366 4563 
z
" transform="scale(0.015625)"/>
       </defs>
       <use xlink:href="#DejaVuSans-36"/>
       <use xlink:href="#DejaVuSans-30" transform="translate(63.623047 0)"/>
      </g>
     </g>
    </g>
    <g id="xtick_5">
     <g id="line2d_5">
      <g>
       <use xlink:href="#mf45efc757a" x="595.324774" y="471.916875" style="stroke: #000000; stroke-width: 0.8"/>
      </g>
     </g>
     <g id="text_5">
      <!-- 80 -->
      <g transform="translate(588.962274 486.515312) scale(0.1 -0.1)">
       <defs>
        <path id="DejaVuSans-38" d="M 2034 2216 
Q 1584 2216 1326 1975 
Q 1069 1734 1069 1313 
Q 1069 891 1326 650 
Q 1584 409 2034 409 
Q 2484 409 2743 651 
Q 3003 894 3003 1313 
Q 3003 1734 2745 1975 
Q 2488 2216 2034 2216 
z
M 1403 2484 
Q 997 2584 770 2862 
Q 544 3141 544 3541 
Q 544 4100 942 4425 
Q 1341 4750 2034 4750 
Q 2731 4750 3128 4425 
Q 3525 4100 3525 3541 
Q 3525 3141 3298 2862 
Q 3072 2584 2669 2484 
Q 3125 2378 3379 2068 
Q 3634 1759 3634 1313 
Q 3634 634 3220 271 
Q 2806 -91 2034 -91 
Q 1263 -91 848 271 
Q 434 634 434 1313 
Q 434 1759 690 2068 
Q 947 2378 1403 2484 
z
M 1172 3481 
Q 1172 3119 1398 2916 
Q 1625 2713 2034 2713 
Q 2441 2713 2670 2916 
Q 2900 3119 2900 3481 
Q 2900 3844 2670 4047 
Q 2441 4250 2034 4250 
Q 1625 4250 1398 4047 
Q 1172 3844 1172 3481 
z
" transform="scale(0.015625)"/>
       </defs>
       <use xlink:href="#DejaVuSans-38"/>
       <use xlink:href="#DejaVuSans-30" transform="translate(63.623047 0)"/>
      </g>
     </g>
    </g>
    <g id="xtick_6">
     <g id="line2d_6">
      <g>
       <use xlink:href="#mf45efc757a" x="722.407712" y="471.916875" style="stroke: #000000; stroke-width: 0.8"/>
      </g>
     </g>
     <g id="text_6">
      <!-- 100 -->
      <g transform="translate(712.863962 486.515312) scale(0.1 -0.1)">
       <defs>
        <path id="DejaVuSans-31" d="M 794 531 
L 1825 531 
L 1825 4091 
L 703 3866 
L 703 4441 
L 1819 4666 
L 2450 4666 
L 2450 531 
L 3481 531 
L 3481 0 
L 794 0 
L 794 531 
z
" transform="scale(0.015625)"/>
       </defs>
       <use xlink:href="#DejaVuSans-31"/>
       <use xlink:href="#DejaVuSans-30" transform="translate(63.623047 0)"/>
       <use xlink:href="#DejaVuSans-30" transform="translate(127.246094 0)"/>
      </g>
     </g>
    </g>
    <g id="text_7">
     <!-- Time (s) -->
     <g transform="translate(360.354531 503.232813) scale(0.14 -0.14)">
      <defs>
       <path id="DejaVuSans-54" d="M -19 4666 
L 3928 4666 
L 3928 4134 
L 2272 4134 
L 2272 0 
L 1638 0 
L 1638 4134 
L -19 4134 
L -19 4666 
z
" transform="scale(0.015625)"/>
       <path id="DejaVuSans-69" d="M 603 3500 
L 1178 3500 
L 1178 0 
L 603 0 
L 603 3500 
z
M 603 4863 
L 1178 4863 
L 1178 4134 
L 603 4134 
L 603 4863 
z
" transform="scale(0.015625)"/>
       <path id="DejaVuSans-6d" d="M 3328 2828 
Q 3544 3216 3844 3400 
Q 4144 3584 4550 3584 
Q 5097 3584 5394 3201 
Q 5691 2819 5691 2113 
L 5691 0 
L 5113 0 
L 5113 2094 
Q 5113 2597 4934 2840 
Q 4756 3084 4391 3084 
Q 3944 3084 3684 2787 
Q 3425 2491 3425 1978 
L 3425 0 
L 2847 0 
L 2847 2094 
Q 2847 2600 2669 2842 
Q 2491 3084 2119 3084 
Q 1678 3084 1418 2786 
Q 1159 2488 1159 1978 
L 1159 0 
L 581 0 
L 581 3500 
L 1159 3500 
L 1159 2956 
Q 1356 3278 1631 3431 
Q 1906 3584 2284 3584 
Q 2666 3584 2933 3390 
Q 3200 3197 3328 2828 
z
" transform="scale(0.015625)"/>
       <path id="DejaVuSans-65" d="M 3597 1894 
L 3597 1613 
L 953 1613 
Q 991 1019 1311 708 
Q 1631 397 2203 397 
Q 2534 397 2845 478 
Q 3156 559 3463 722 
L 3463 178 
Q 3153 47 2828 -22 
Q 2503 -91 2169 -91 
Q 1331 -91 842 396 
Q 353 884 353 1716 
Q 353 2575 817 3079 
Q 1281 3584 2069 3584 
Q 2775 3584 3186 3129 
Q 3597 2675 3597 1894 
z
M 3022 2063 
Q 3016 2534 2758 2815 
Q 2500 3097 2075 3097 
Q 1594 3097 1305 2825 
Q 1016 2553 972 2059 
L 3022 2063 
z
" transform="scale(0.015625)"/>
       <path id="DejaVuSans-20" transform="scale(0.015625)"/>
       <path id="DejaVuSans-28" d="M 1984 4856 
Q 1566 4138 1362 3434 
Q 1159 2731 1159 2009 
Q 1159 1288 1364 580 
Q 1569 -128 1984 -844 
L 1484 -844 
Q 1016 -109 783 600 
Q 550 1309 550 2009 
Q 550 2706 781 3412 
Q 1013 4119 1484 4856 
L 1984 4856 
z
" transform="scale(0.015625)"/>
       <path id="DejaVuSans-73" d="M 2834 3397 
L 2834 2853 
Q 2591 2978 2328 3040 
Q 2066 3103 1784 3103 
Q 1356 3103 1142 2972 
Q 928 2841 928 2578 
Q 928 2378 1081 2264 
Q 1234 2150 1697 2047 
L 1894 2003 
Q 2506 1872 2764 1633 
Q 3022 1394 3022 966 
Q 3022 478 2636 193 
Q 2250 -91 1575 -91 
Q 1294 -91 989 -36 
Q 684 19 347 128 
L 347 722 
Q 666 556 975 473 
Q 1284 391 1588 391 
Q 1994 391 2212 530 
Q 2431 669 2431 922 
Q 2431 1156 2273 1281 
Q 2116 1406 1581 1522 
L 1381 1569 
Q 847 1681 609 1914 
Q 372 2147 372 2553 
Q 372 3047 722 3315 
Q 1072 3584 1716 3584 
Q 2034 3584 2315 3537 
Q 2597 3491 2834 3397 
z
" transform="scale(0.015625)"/>
       <path id="DejaVuSans-29" d="M 513 4856 
L 1013 4856 
Q 1481 4119 1714 3412 
Q 1947 2706 1947 2009 
Q 1947 1309 1714 600 
Q 1481 -109 1013 -844 
L 513 -844 
Q 928 -128 1133 580 
Q 1338 1288 1338 2009 
Q 1338 2731 1133 3434 
Q 928 4138 513 4856 
z
" transform="scale(0.015625)"/>
      </defs>
      <use xlink:href="#DejaVuSans-54"/>
      <use xlink:href="#DejaVuSans-69" transform="translate(57.958984 0)"/>
      <use xlink:href="#DejaVuSans-6d" transform="translate(85.742188 0)"/>
      <use xlink:href="#DejaVuSans-65" transform="translate(183.154297 0)"/>
      <use xlink:href="#DejaVuSans-20" transform="translate(244.677734 0)"/>
      <use xlink:href="#DejaVuSans-28" transform="translate(276.464844 0)"/>
      <use xlink:href="#DejaVuSans-73" transform="translate(315.478516 0)"/>
      <use xlink:href="#DejaVuSans-29" transform="translate(367.578125 0)"/>
     </g>
    </g>
   </g>
   <g id="matplotlib.axis_2">
    <g id="ytick_1">
     <g id="line2d_7">
      <defs>
       <path id="m067fb2ed78" d="M 0 0 
L -3.5 0 
" style="stroke: #000000; stroke-width: 0.8"/>
      </defs>
      <g>
       <use xlink:href="#m067fb2ed78" x="54.015" y="471.916875" style="stroke: #000000; stroke-width: 0.8"/>
      </g>
     </g>
     <g id="text_8">
      <!-- 0.00 -->
      <g transform="translate(24.749375 475.716094) scale(0.1 -0.1)">
       <defs>
        <path id="DejaVuSans-2e" d="M 684 794 
L 1344 794 
L 1344 0 
L 684 0 
L 684 794 
z
" transform="scale(0.015625)"/>
       </defs>
       <use xlink:href="#DejaVuSans-30"/>
       <use xlink:href="#DejaVuSans-2e" transform="translate(63.623047 0)"/>
       <use xlink:href="#DejaVuSans-30" transform="translate(95.410156 0)"/>
       <use xlink:href="#DejaVuSans-30" transform="translate(159.033203 0)"/>
      </g>
     </g>
    </g>
    <g id="ytick_2">
     <g id="line2d_8">
      <g>
       <use xlink:href="#m067fb2ed78" x="54.015" y="419.116875" style="stroke: #000000; stroke-width: 0.8"/>
      </g>
     </g>
     <g id="text_9">
      <!-- 0.25 -->
      <g transform="translate(24.749375 422.916094) scale(0.1 -0.1)">
       <defs>
        <path id="DejaVuSans-35" d="M 691 4666 
L 3169 4666 
L 3169 4134 
L 1269 4134 
L 1269 2991 
Q 1406 3038 1543 3061 
Q 1681 3084 1819 3084 
Q 2600 3084 3056 2656 
Q 3513 2228 3513 1497 
Q 3513 744 3044 326 
Q 2575 -91 1722 -91 
Q 1428 -91 1123 -41 
Q 819 9 494 109 
L 494 744 
Q 775 591 1075 516 
Q 1375 441 1709 441 
Q 2250 441 2565 725 
Q 2881 1009 2881 1497 
Q 2881 1984 2565 2268 
Q 2250 2553 1709 2553 
Q 1456 2553 1204 2497 
Q 953 2441 691 2322 
L 691 4666 
z
" transform="scale(0.015625)"/>
       </defs>
       <use xlink:href="#DejaVuSans-30"/>
       <use xlink:href="#DejaVuSans-2e" transform="translate(63.623047 0)"/>
       <use xlink:href="#DejaVuSans-32" transform="translate(95.410156 0)"/>
       <use xlink:href="#DejaVuSans-35" transform="translate(159.033203 0)"/>
      </g>
     </g>
    </g>
    <g id="ytick_3">
     <g id="line2d_9">
      <g>
       <use xlink:href="#m067fb2ed78" x="54.015" y="366.316875" style="stroke: #000000; stroke-width: 0.8"/>
      </g>
     </g>
     <g id="text_10">
      <!-- 0.50 -->
      <g transform="translate(24.749375 370.116094) scale(0.1 -0.1)">
       <use xlink:href="#DejaVuSans-30"/>
       <use xlink:href="#DejaVuSans-2e" transform="translate(63.623047 0)"/>
       <use xlink:href="#DejaVuSans-35" transform="translate(95.410156 0)"/>
       <use xlink:href="#DejaVuSans-30" transform="translate(159.033203 0)"/>
      </g>
     </g>
    </g>
    <g id="ytick_4">
     <g id="line2d_10">
      <g>
       <use xlink:href="#m067fb2ed78" x="54.015" y="313.516875" style="stroke: #000000; stroke-width: 0.8"/>
      </g>
     </g>
     <g id="text_11">
      <!-- 0.75 -->
      <g transform="translate(24.749375 317.316094) scale(0.1 -0.1)">
       <defs>
        <path id="DejaVuSans-37" d="M 525 4666 
L 3525 4666 
L 3525 4397 
L 1831 0 
L 1172 0 
L 2766 4134 
L 525 4134 
L 525 4666 
z
" transform="scale(0.015625)"/>
       </defs>
       <use xlink:href="#DejaVuSans-30"/>
       <use xlink:href="#DejaVuSans-2e" transform="translate(63.623047 0)"/>
       <use xlink:href="#DejaVuSans-37" transform="translate(95.410156 0)"/>
       <use xlink:href="#DejaVuSans-35" transform="translate(159.033203 0)"/>
      </g>
     </g>
    </g>
    <g id="ytick_5">
     <g id="line2d_11">
      <g>
       <use xlink:href="#m067fb2ed78" x="54.015" y="260.716875" style="stroke: #000000; stroke-width: 0.8"/>
      </g>
     </g>
     <g id="text_12">
      <!-- 1.00 -->
      <g transform="translate(24.749375 264.516094) scale(0.1 -0.1)">
       <use xlink:href="#DejaVuSans-31"/>
       <use xlink:href="#DejaVuSans-2e" transform="translate(63.623047 0)"/>
       <use xlink:href="#DejaVuSans-30" transform="translate(95.410156 0)"/>
       <use xlink:href="#DejaVuSans-30" transform="translate(159.033203 0)"/>
      </g>
     </g>
    </g>
    <g id="ytick_6">
     <g id="line2d_12">
      <g>
       <use xlink:href="#m067fb2ed78" x="54.015" y="207.916875" style="stroke: #000000; stroke-width: 0.8"/>
      </g>
     </g>
     <g id="text_13">
      <!-- 1.25 -->
      <g transform="translate(24.749375 211.716094) scale(0.1 -0.1)">
       <use xlink:href="#DejaVuSans-31"/>
       <use xlink:href="#DejaVuSans-2e" transform="translate(63.623047 0)"/>
       <use xlink:href="#DejaVuSans-32" transform="translate(95.410156 0)"/>
       <use xlink:href="#DejaVuSans-35" transform="translate(159.033203 0)"/>
      </g>
     </g>
    </g>
    <g id="ytick_7">
     <g id="line2d_13">
      <g>
       <use xlink:href="#m067fb2ed78" x="54.015" y="155.116875" style="stroke: #000000; stroke-width: 0.8"/>
      </g>
     </g>
     <g id="text_14">
      <!-- 1.50 -->
      <g transform="translate(24.749375 158.916094) scale(0.1 -0.1)">
       <use xlink:href="#DejaVuSans-31"/>
       <use xlink:href="#DejaVuSans-2e" transform="translate(63.623047 0)"/>
       <use xlink:href="#DejaVuSans-35" transform="translate(95.410156 0)"/>
       <use xlink:href="#DejaVuSans-30" transform="translate(159.033203 0)"/>
      </g>
     </g>
    </g>
    <g id="ytick_8">
     <g id="line2d_14">
      <g>
       <use xlink:href="#m067fb2ed78" x="54.015" y="102.316875" style="stroke: #000000; stroke-width: 0.8"/>
      </g>
     </g>
     <g id="text_15">
      <!-- 1.75 -->
      <g transform="translate(24.749375 106.116094) scale(0.1 -0.1)">
       <use xlink:href="#DejaVuSans-31"/>
       <use xlink:href="#DejaVuSans-2e" transform="translate(63.623047 0)"/>
       <use xlink:href="#DejaVuSans-37" transform="translate(95.410156 0)"/>
       <use xlink:href="#DejaVuSans-35" transform="translate(159.033203 0)"/>
      </g>
     </g>
    </g>
    <g id="ytick_9">
     <g id="line2d_15">
      <g>
       <use xlink:href="#m067fb2ed78" x="54.015" y="49.516875" style="stroke: #000000; stroke-width: 0.8"/>
      </g>
     </g>
     <g id="text_16">
      <!-- 2.00 -->
      <g transform="translate(24.749375 53.316094) scale(0.1 -0.1)">
       <use xlink:href="#DejaVuSans-32"/>
       <use xlink:href="#DejaVuSans-2e" transform="translate(63.623047 0)"/>
       <use xlink:href="#DejaVuSans-30" transform="translate(95.410156 0)"/>
       <use xlink:href="#DejaVuSans-30" transform="translate(159.033203 0)"/>
      </g>
     </g>
    </g>
    <g id="text_17">
     <!-- Aircraft Waiting -->
     <g transform="translate(17.837813 304.215469) rotate(-90) scale(0.14 -0.14)">
      <defs>
       <path id="DejaVuSans-41" d="M 2188 4044 
L 1331 1722 
L 3047 1722 
L 2188 4044 
z
M 1831 4666 
L 2547 4666 
L 4325 0 
L 3669 0 
L 3244 1197 
L 1141 1197 
L 716 0 
L 50 0 
L 1831 4666 
z
" transform="scale(0.015625)"/>
       <path id="DejaVuSans-72" d="M 2631 2963 
Q 2534 3019 2420 3045 
Q 2306 3072 2169 3072 
Q 1681 3072 1420 2755 
Q 1159 2438 1159 1844 
L 1159 0 
L 581 0 
L 581 3500 
L 1159 3500 
L 1159 2956 
Q 1341 3275 1631 3429 
Q 1922 3584 2338 3584 
Q 2397 3584 2469 3576 
Q 2541 3569 2628 3553 
L 2631 2963 
z
" transform="scale(0.015625)"/>
       <path id="DejaVuSans-63" d="M 3122 3366 
L 3122 2828 
Q 2878 2963 2633 3030 
Q 2388 3097 2138 3097 
Q 1578 3097 1268 2742 
Q 959 2388 959 1747 
Q 959 1106 1268 751 
Q 1578 397 2138 397 
Q 2388 397 2633 464 
Q 2878 531 3122 666 
L 3122 134 
Q 2881 22 2623 -34 
Q 2366 -91 2075 -91 
Q 1284 -91 818 406 
Q 353 903 353 1747 
Q 353 2603 823 3093 
Q 1294 3584 2113 3584 
Q 2378 3584 2631 3529 
Q 2884 3475 3122 3366 
z
" transform="scale(0.015625)"/>
       <path id="DejaVuSans-61" d="M 2194 1759 
Q 1497 1759 1228 1600 
Q 959 1441 959 1056 
Q 959 750 1161 570 
Q 1363 391 1709 391 
Q 2188 391 2477 730 
Q 2766 1069 2766 1631 
L 2766 1759 
L 2194 1759 
z
M 3341 1997 
L 3341 0 
L 2766 0 
L 2766 531 
Q 2569 213 2275 61 
Q 1981 -91 1556 -91 
Q 1019 -91 701 211 
Q 384 513 384 1019 
Q 384 1609 779 1909 
Q 1175 2209 1959 2209 
L 2766 2209 
L 2766 2266 
Q 2766 2663 2505 2880 
Q 2244 3097 1772 3097 
Q 1472 3097 1187 3025 
Q 903 2953 641 2809 
L 641 3341 
Q 956 3463 1253 3523 
Q 1550 3584 1831 3584 
Q 2591 3584 2966 3190 
Q 3341 2797 3341 1997 
z
" transform="scale(0.015625)"/>
       <path id="DejaVuSans-66" d="M 2375 4863 
L 2375 4384 
L 1825 4384 
Q 1516 4384 1395 4259 
Q 1275 4134 1275 3809 
L 1275 3500 
L 2222 3500 
L 2222 3053 
L 1275 3053 
L 1275 0 
L 697 0 
L 697 3053 
L 147 3053 
L 147 3500 
L 697 3500 
L 697 3744 
Q 697 4328 969 4595 
Q 1241 4863 1831 4863 
L 2375 4863 
z
" transform="scale(0.015625)"/>
       <path id="DejaVuSans-74" d="M 1172 4494 
L 1172 3500 
L 2356 3500 
L 2356 3053 
L 1172 3053 
L 1172 1153 
Q 1172 725 1289 603 
Q 1406 481 1766 481 
L 2356 481 
L 2356 0 
L 1766 0 
Q 1100 0 847 248 
Q 594 497 594 1153 
L 594 3053 
L 172 3053 
L 172 3500 
L 594 3500 
L 594 4494 
L 1172 4494 
z
" transform="scale(0.015625)"/>
       <path id="DejaVuSans-57" d="M 213 4666 
L 850 4666 
L 1831 722 
L 2809 4666 
L 3519 4666 
L 4500 722 
L 5478 4666 
L 6119 4666 
L 4947 0 
L 4153 0 
L 3169 4050 
L 2175 0 
L 1381 0 
L 213 4666 
z
" transform="scale(0.015625)"/>
       <path id="DejaVuSans-6e" d="M 3513 2113 
L 3513 0 
L 2938 0 
L 2938 2094 
Q 2938 2591 2744 2837 
Q 2550 3084 2163 3084 
Q 1697 3084 1428 2787 
Q 1159 2491 1159 1978 
L 1159 0 
L 581 0 
L 581 3500 
L 1159 3500 
L 1159 2956 
Q 1366 3272 1645 3428 
Q 1925 3584 2291 3584 
Q 2894 3584 3203 3211 
Q 3513 2838 3513 2113 
z
" transform="scale(0.015625)"/>
       <path id="DejaVuSans-67" d="M 2906 1791 
Q 2906 2416 2648 2759 
Q 2391 3103 1925 3103 
Q 1463 3103 1205 2759 
Q 947 2416 947 1791 
Q 947 1169 1205 825 
Q 1463 481 1925 481 
Q 2391 481 2648 825 
Q 2906 1169 2906 1791 
z
M 3481 434 
Q 3481 -459 3084 -895 
Q 2688 -1331 1869 -1331 
Q 1566 -1331 1297 -1286 
Q 1028 -1241 775 -1147 
L 775 -588 
Q 1028 -725 1275 -790 
Q 1522 -856 1778 -856 
Q 2344 -856 2625 -561 
Q 2906 -266 2906 331 
L 2906 616 
Q 2728 306 2450 153 
Q 2172 0 1784 0 
Q 1141 0 747 490 
Q 353 981 353 1791 
Q 353 2603 747 3093 
Q 1141 3584 1784 3584 
Q 2172 3584 2450 3431 
Q 2728 3278 2906 2969 
L 2906 3500 
L 3481 3500 
L 3481 434 
z
" transform="scale(0.015625)"/>
      </defs>
      <use xlink:href="#DejaVuSans-41"/>
      <use xlink:href="#DejaVuSans-69" transform="translate(68.408203 0)"/>
      <use xlink:href="#DejaVuSans-72" transform="translate(96.191406 0)"/>
      <use xlink:href="#DejaVuSans-63" transform="translate(135.054688 0)"/>
      <use xlink:href="#DejaVuSans-72" transform="translate(190.035156 0)"/>
      <use xlink:href="#DejaVuSans-61" transform="translate(231.148438 0)"/>
      <use xlink:href="#DejaVuSans-66" transform="translate(292.427734 0)"/>
      <use xlink:href="#DejaVuSans-74" transform="translate(325.882812 0)"/>
      <use xlink:href="#DejaVuSans-20" transform="translate(365.091797 0)"/>
      <use xlink:href="#DejaVuSans-57" transform="translate(396.878906 0)"/>
      <use xlink:href="#DejaVuSans-61" transform="translate(489.380859 0)"/>
      <use xlink:href="#DejaVuSans-69" transform="translate(550.660156 0)"/>
      <use xlink:href="#DejaVuSans-74" transform="translate(578.443359 0)"/>
      <use xlink:href="#DejaVuSans-69" transform="translate(617.652344 0)"/>
      <use xlink:href="#DejaVuSans-6e" transform="translate(645.435547 0)"/>
      <use xlink:href="#DejaVuSans-67" transform="translate(708.814453 0)"/>
     </g>
    </g>
   </g>
   <g id="patch_99">
    <path d="M 54.015 471.916875 
L 54.015 28.396875 
" style="fill: none; stroke: #000000; stroke-width: 0.8; stroke-linejoin: miter; stroke-linecap: square"/>
   </g>
   <g id="patch_100">
    <path d="M 723.615 471.916875 
L 723.615 28.396875 
" style="fill: none; stroke: #000000; stroke-width: 0.8; stroke-linejoin: miter; stroke-linecap: square"/>
   </g>
   <g id="patch_101">
    <path d="M 54.015 471.916875 
L 723.615 471.916875 
" style="fill: none; stroke: #000000; stroke-width: 0.8; stroke-linejoin: miter; stroke-linecap: square"/>
   </g>
   <g id="patch_102">
    <path d="M 54.015 28.396875 
L 723.615 28.396875 
" style="fill: none; stroke: #000000; stroke-width: 0.8; stroke-linejoin: miter; stroke-linecap: square"/>
   </g>
   <g id="text_18">
    <!-- Total Aircraft Waiting -->
    <g transform="translate(285.057187 22.396875) scale(0.2 -0.2)">
     <defs>
      <path id="DejaVuSans-6f" d="M 1959 3097 
Q 1497 3097 1228 2736 
Q 959 2375 959 1747 
Q 959 1119 1226 758 
Q 1494 397 1959 397 
Q 2419 397 2687 759 
Q 2956 1122 2956 1747 
Q 2956 2369 2687 2733 
Q 2419 3097 1959 3097 
z
M 1959 3584 
Q 2709 3584 3137 3096 
Q 3566 2609 3566 1747 
Q 3566 888 3137 398 
Q 2709 -91 1959 -91 
Q 1206 -91 779 398 
Q 353 888 353 1747 
Q 353 2609 779 3096 
Q 1206 3584 1959 3584 
z
" transform="scale(0.015625)"/>
      <path id="DejaVuSans-6c" d="M 603 4863 
L 1178 4863 
L 1178 0 
L 603 0 
L 603 4863 
z
" transform="scale(0.015625)"/>
     </defs>
     <use xlink:href="#DejaVuSans-54"/>
     <use xlink:href="#DejaVuSans-6f" transform="translate(44.083984 0)"/>
     <use xlink:href="#DejaVuSans-74" transform="translate(105.265625 0)"/>
     <use xlink:href="#DejaVuSans-61" transform="translate(144.474609 0)"/>
     <use xlink:href="#DejaVuSans-6c" transform="translate(205.753906 0)"/>
     <use xlink:href="#DejaVuSans-20" transform="translate(233.537109 0)"/>
     <use xlink:href="#DejaVuSans-41" transform="translate(265.324219 0)"/>
     <use xlink:href="#DejaVuSans-69" transform="translate(333.732422 0)"/>
     <use xlink:href="#DejaVuSans-72" transform="translate(361.515625 0)"/>
     <use xlink:href="#DejaVuSans-63" transform="translate(400.378906 0)"/>
     <use xlink:href="#DejaVuSans-72" transform="translate(455.359375 0)"/>
     <use xlink:href="#DejaVuSans-61" transform="translate(496.472656 0)"/>
     <use xlink:href="#DejaVuSans-66" transform="translate(557.751953 0)"/>
     <use xlink:href="#DejaVuSans-74" transform="translate(591.207031 0)"/>
     <use xlink:href="#DejaVuSans-20" transform="translate(630.416016 0)"/>
     <use xlink:href="#DejaVuSans-57" transform="translate(662.203125 0)"/>
     <use xlink:href="#DejaVuSans-61" transform="translate(754.705078 0)"/>
     <use xlink:href="#DejaVuSans-69" transform="translate(815.984375 0)"/>
     <use xlink:href="#DejaVuSans-74" transform="translate(843.767578 0)"/>
     <use xlink:href="#DejaVuSans-69" transform="translate(882.976562 0)"/>
     <use xlink:href="#DejaVuSans-6e" transform="translate(910.759766 0)"/>
     <use xlink:href="#DejaVuSans-67" transform="translate(974.138672 0)"/>
    </g>
   </g>
  </g>
 </g>
 <defs>
  <clipPath id="pb91fe0ca44">
   <rect x="54.015" y="28.396875" width="669.6" height="443.52"/>
  </clipPath>
 </defs>
</svg>
